<svg width="20" height="21" viewBox="0 0 20 21" fill="none" xmlns="http://www.w3.org/2000/svg">
<path d="M12.2059 3.90082C12.2282 3.99309 12.2721 4.07879 12.3338 4.15094C12.3955 4.22309 12.4734 4.27965 12.5611 4.31603C12.6488 4.35241 12.7438 4.36758 12.8385 4.3603C12.9332 4.35302 13.0248 4.32351 13.1059 4.27415C15.1384 3.03665 17.4642 5.36165 16.2267 7.39415C16.1774 7.4752 16.1478 7.56676 16.1405 7.66138C16.1332 7.75599 16.1482 7.851 16.1845 7.93869C16.2208 8.02638 16.2773 8.10427 16.3494 8.16603C16.4214 8.22779 16.507 8.27169 16.5992 8.29415C18.9117 8.85498 18.9117 12.1442 16.5992 12.7058C16.5069 12.7282 16.4212 12.772 16.3491 12.8337C16.2769 12.8954 16.2204 12.9733 16.184 13.061C16.1476 13.1487 16.1324 13.2438 16.1397 13.3384C16.147 13.4331 16.1765 13.5247 16.2259 13.6058C17.4634 15.6383 15.1384 17.9641 13.1059 16.7266C13.0248 16.6773 12.9333 16.6477 12.8387 16.6404C12.744 16.6331 12.649 16.6482 12.5613 16.6845C12.4737 16.7208 12.3958 16.7772 12.334 16.8493C12.2722 16.9213 12.2283 17.0069 12.2059 17.0992C11.645 19.4117 8.35588 19.4117 7.79421 17.0992C7.77185 17.0069 7.72803 16.9212 7.66631 16.849C7.60459 16.7769 7.52672 16.7203 7.43902 16.6839C7.35132 16.6476 7.25627 16.6324 7.1616 16.6397C7.06693 16.6469 6.97532 16.6765 6.89421 16.7258C4.86171 17.9633 2.53588 15.6383 3.77338 13.6058C3.82274 13.5248 3.85228 13.4332 3.85961 13.3386C3.86694 13.244 3.85184 13.149 3.81555 13.0613C3.77926 12.9736 3.72279 12.8957 3.65074 12.8339C3.57869 12.7722 3.49308 12.7283 3.40088 12.7058C1.08838 12.145 1.08838 8.85582 3.40088 8.29415C3.49316 8.27179 3.57885 8.22797 3.651 8.16625C3.72315 8.10453 3.77971 8.02666 3.81609 7.93896C3.85247 7.85126 3.86764 7.75621 3.86036 7.66154C3.85309 7.56687 3.82357 7.47526 3.77421 7.39415C2.53671 5.36165 4.86171 3.03582 6.89421 4.27332C6.97518 4.32305 7.06678 4.3529 7.16151 4.36041C7.25624 4.36793 7.3514 4.3529 7.4392 4.31656C7.527 4.28022 7.60494 4.2236 7.66665 4.15134C7.72836 4.07908 7.77207 3.99323 7.79421 3.90082C8.35504 1.58832 11.6442 1.58832 12.2059 3.90082ZM10 7.99998C9.337 7.99998 8.70112 8.26338 8.23228 8.73222C7.76344 9.20106 7.50005 9.83694 7.50005 10.5C7.50005 11.163 7.76344 11.7989 8.23228 12.2678C8.70112 12.7366 9.337 13 10 13C10.6631 13 11.299 12.7366 11.7678 12.2678C12.2367 11.7989 12.5 11.163 12.5 10.5C12.5 9.83694 12.2367 9.20106 11.7678 8.73222C11.299 8.26338 10.6631 7.99998 10 7.99998Z" fill="#1D0D33"/>
</svg>
