<svg width="273" height="153" viewBox="0 0 273 153" fill="none" xmlns="http://www.w3.org/2000/svg">
<path d="M8.375 122V31.5H42.375C63.125 31.5 74.25 44.125 74.25 61.5C74.25 78.875 63 91.375 42.125 91.375H24.625V122H8.375ZM24.625 78H39.875C52.125 78 57.625 71.125 57.625 61.5C57.625 51.75 52.125 45.125 39.875 45.125H24.625V78Z" fill="#1D2939"/>
<ellipse cx="102" cy="45" rx="12" ry="15" fill="url(#paint0_linear_2024_3754)"/>
<path d="M90 79C90 74.5817 93.5817 71 98 71H106C110.418 71 114 74.5817 114 79V114C114 118.418 110.418 122 106 122H98C93.5817 122 90 118.418 90 114V79Z" fill="url(#paint1_linear_2024_3754)"/>
<path d="M134.277 114.496C134.344 118.913 138.008 122.51 142.347 121.679C151.566 119.914 160.093 115.355 166.716 108.527C175.21 99.7693 179.878 87.9964 179.691 75.7979C179.505 63.5993 174.481 51.9744 165.723 43.4804C158.895 36.857 150.232 32.5604 140.964 31.0775C136.602 30.3795 133.049 34.0867 133.117 38.5044L133.178 42.4864C133.245 46.9041 136.961 50.3125 141.192 51.5854C145.144 52.7744 148.794 54.8977 151.811 57.8241C156.764 62.6283 159.606 69.2034 159.711 76.1029C159.817 83.0024 157.177 89.6611 152.373 94.6143C149.446 97.6314 145.863 99.8652 141.949 101.174C137.759 102.576 134.149 106.096 134.216 110.514L134.277 114.496Z" fill="url(#paint2_linear_2024_3754)"/>
<path d="M196.769 122V31.5H213.019V73.125H214.269L249.644 31.5H269.519L234.519 72.125L269.894 122H250.269L223.144 83.125L213.019 95V122H196.769Z" fill="#1D2939"/>
<defs>
<linearGradient id="paint0_linear_2024_3754" x1="102" y1="30" x2="102" y2="60" gradientUnits="userSpaceOnUse">
<stop stop-color="#9650FA"/>
<stop offset="1" stop-color="#535EC6"/>
</linearGradient>
<linearGradient id="paint1_linear_2024_3754" x1="102" y1="71" x2="102" y2="122" gradientUnits="userSpaceOnUse">
<stop stop-color="#9650FA"/>
<stop offset="1" stop-color="#535EC6"/>
</linearGradient>
<linearGradient id="paint2_linear_2024_3754" x1="179.691" y1="75.7979" x2="87.7022" y2="77.2022" gradientUnits="userSpaceOnUse">
<stop stop-color="#9650FA"/>
<stop offset="1" stop-color="#535EC6"/>
</linearGradient>
</defs>
</svg>
