<svg width="32" height="32" viewBox="0 0 32 32" fill="none" xmlns="http://www.w3.org/2000/svg">
<path d="M2.66666 25.3334C2.66666 27.6 4.39999 29.3334 6.66666 29.3334H25.3333C27.6 29.3334 29.3333 27.6 29.3333 25.3334V14.6667H2.66666V25.3334ZM25.3333 5.33335H22.6667V4.00002C22.6667 3.20002 22.1333 2.66669 21.3333 2.66669C20.5333 2.66669 20 3.20002 20 4.00002V5.33335H12V4.00002C12 3.20002 11.4667 2.66669 10.6667 2.66669C9.86666 2.66669 9.33332 3.20002 9.33332 4.00002V5.33335H6.66666C4.39999 5.33335 2.66666 7.06669 2.66666 9.33335V12H29.3333V9.33335C29.3333 7.06669 27.6 5.33335 25.3333 5.33335Z" fill="#684DF0"/>
</svg>
