<svg width="12" height="12" viewBox="0 0 12 12" fill="none" xmlns="http://www.w3.org/2000/svg">
<g clip-path="url(#clip0_457_403)">
<rect width="12" height="12" rx="6" fill="#7E40D5"/>
<path d="M8.36 9H7.008L4.6 4.52H4.568C4.57333 4.63733 4.57867 4.76267 4.584 4.896C4.58933 5.024 4.59467 5.15733 4.6 5.296C4.61067 5.42933 4.61867 5.56533 4.624 5.704C4.62933 5.84267 4.632 5.98133 4.632 6.12V9H3.672V3.288H5.016L7.416 7.736H7.448C7.44267 7.62933 7.43733 7.51467 7.432 7.392C7.42667 7.264 7.42133 7.13333 7.416 7C7.41067 6.86667 7.40533 6.73067 7.4 6.592C7.39467 6.45333 7.392 6.32 7.392 6.192V3.288H8.36V9Z" fill="#FAF6FF"/>
</g>
<defs>
<clipPath id="clip0_457_403">
<rect width="12" height="12" rx="6" fill="white"/>
</clipPath>
</defs>
</svg>
