<svg width="20" height="26" viewBox="0 0 20 26" fill="none" xmlns="http://www.w3.org/2000/svg">
<path fill-rule="evenodd" clip-rule="evenodd" d="M8.5835 2.5C8.11946 2.50031 7.67452 2.68478 7.3464 3.0129C7.01828 3.34103 6.83381 3.78597 6.8335 4.25H13.8335C13.8335 3.78587 13.6491 3.34075 13.3209 3.01256C12.9927 2.68437 12.5476 2.5 12.0835 2.5H8.5835ZM5.44166 2.70767C5.73001 2.12029 6.17723 1.6255 6.73258 1.27947C7.28793 0.933432 7.92916 0.750003 8.5835 0.75H12.0835C12.738 0.749785 13.3795 0.933111 13.9351 1.27916C14.4907 1.62521 14.9381 2.12011 15.2265 2.70767C15.8063 2.75667 16.3838 2.815 16.9602 2.88267C18.7067 3.0845 19.9585 4.586 19.9585 6.29983V21.75C19.9585 22.6783 19.5897 23.5685 18.9334 24.2249C18.277 24.8813 17.3868 25.25 16.4585 25.25H4.2085C3.28024 25.25 2.39 24.8813 1.73362 24.2249C1.07725 23.5685 0.708496 22.6783 0.708496 21.75V6.29983C0.708496 4.58483 1.96033 3.0845 3.70683 2.8815C4.282 2.815 4.86066 2.75783 5.44166 2.70767Z" fill="#684DF0"/>
</svg>
