<svg width="342" height="68" viewBox="0 0 342 68" fill="none" xmlns="http://www.w3.org/2000/svg">
<g clip-path="url(#clip0_4753_8117)">
<rect width="342" height="68" rx="8" fill="#E6D5FE"/>
<g opacity="0.7">
<path d="M195.44 34.5898L194.95 53.1999L202.31 54.6498L206.2 36.1198L195.44 34.5898Z" fill="#FFC3BD"/>
<path d="M257.78 39.3197L261.07 48.7197L268.6 47.1097L266.24 36.9297L257.78 39.3197Z" fill="#FFC3BD"/>
<path d="M195.08 51.5201L202.59 53.1801C202.751 53.2143 202.895 53.3023 202.998 53.4296C203.102 53.5569 203.159 53.7159 203.16 53.8801V61.2901C203.163 61.4467 203.134 61.6023 203.076 61.7478C203.018 61.8933 202.931 62.0257 202.822 62.1374C202.712 62.2491 202.581 62.3378 202.436 62.3984C202.292 62.4589 202.137 62.4901 201.98 62.4901C201.897 62.4999 201.813 62.4999 201.73 62.4901C198.61 61.7501 195.86 60.9701 191.96 60.1301C187.35 59.1301 188.4 59.93 182.96 58.83C179.69 58.16 179.9 54.3201 181.33 54.4401C187.83 55.0301 190.08 53.4901 193.01 51.7601C193.645 51.4226 194.384 51.3369 195.08 51.5201Z" fill="#263238"/>
<path d="M261.08 46.7601L268.61 45.1501C268.769 45.1149 268.935 45.1354 269.081 45.2083C269.227 45.2811 269.343 45.4018 269.41 45.5501L272.52 52.2801C272.653 52.5653 272.668 52.8917 272.561 53.1878C272.455 53.4839 272.235 53.7257 271.95 53.8601C271.874 53.8988 271.793 53.929 271.71 53.9501C268.57 54.5701 265.71 55.0101 261.84 55.8601C257.24 56.8601 258.53 57.1601 253.13 58.4101C249.88 59.1601 248.48 55.5901 249.82 55.1001C255.97 52.9301 257.38 50.6001 259.33 47.8101C259.766 47.2582 260.388 46.8847 261.08 46.7601Z" fill="#263238"/>
<path d="M214.55 -94.9099L233.2 -23.4799L259.25 45.5201L268.25 42.8801C268.25 42.8801 262.73 3.52005 254.74 -17.89C252.99 -22.58 248.74 -33.89 248.27 -40.89C247.55 -52.63 247.34 -69.7799 247.09 -77.3799C246.88 -83.6599 246.93 -93.0799 241.63 -101.94L214.33 -97.4899L214.55 -94.9099Z" fill="#8F40FF"/>
<path opacity="0.8" d="M214.55 -94.9099L233.2 -23.4799L259.25 45.5201L268.25 42.8801C268.25 42.8801 262.73 3.52005 254.74 -17.89C252.99 -22.58 248.74 -33.89 248.27 -40.89C247.55 -52.63 247.34 -69.7799 247.09 -77.3799C246.88 -83.6599 246.93 -93.0799 241.63 -101.94L214.33 -97.4899L214.55 -94.9099Z" fill="white"/>
<path d="M227.54 -98.5804C227.54 -98.5804 233 -85.8704 226 -66.4104C226 -66.4104 217.89 -42.0304 215.72 -33.9504C215.06 -31.4804 214.48 -23.0103 214.29 -15.0603C214.06 -5.69035 213.24 13.0896 203.7 51.0196L194.25 49.7396L197.63 -100.36L227.54 -98.5804Z" fill="#8F40FF"/>
<path opacity="0.8" d="M227.54 -98.5804C227.54 -98.5804 233 -85.8704 226 -66.4104C226 -66.4104 217.89 -42.0304 215.72 -33.9504C215.06 -31.4804 214.48 -23.0103 214.29 -15.0603C214.06 -5.69035 213.24 13.0896 203.7 51.0196L194.25 49.7396L197.63 -100.36L227.54 -98.5804Z" fill="white"/>
<path d="M201.7 -70.4699L152.05 53.1501L146.18 50.5101C146.18 50.5101 156.71 2.71012 166 -17.9999C166.31 -18.6999 166.63 -19.3699 166.94 -19.9999C168.464 -23.0677 169.503 -26.3535 170.02 -29.7399C170.1 -30.2999 170.19 -30.8899 170.29 -31.5099C171.96 -42.4599 175.56 -62.6299 180.59 -72.1099L201.7 -70.4699Z" fill="#FFB573"/>
<path opacity="0.1" d="M201.7 -70.4699L152.05 53.1501L146.18 50.5101C146.18 50.5101 156.71 2.71012 166 -17.9999C166.31 -18.6999 166.63 -19.3699 166.94 -19.9999C168.464 -23.0677 169.503 -26.3535 170.02 -29.7399C170.1 -30.2999 170.19 -30.8899 170.29 -31.5099C171.96 -42.4599 175.56 -62.6299 180.59 -72.1099L201.7 -70.4699Z" fill="black"/>
<path d="M153 50.6799L145.83 47.8999C145.679 47.8374 145.51 47.8292 145.354 47.8766C145.197 47.924 145.061 48.024 144.97 48.1599L140.84 54.3199C140.663 54.5801 140.596 54.8997 140.655 55.2089C140.713 55.5181 140.891 55.7917 141.15 55.9699C141.218 56.0195 141.292 56.0599 141.37 56.0899C144.37 57.2099 147.1 58.0899 150.82 59.5399C155.2 61.2599 153.88 61.3499 159.01 63.4399C162.11 64.6899 164.01 61.3799 162.81 60.6899C157.07 57.5799 156.05 55.0499 154.57 51.9899C154.229 51.3722 153.669 50.9048 153 50.6799Z" fill="#263238"/>
<path d="M185.69 -75.54L216.09 54.77L209.41 55.77C209.41 55.77 191 12.12 186.61 -9.48004C186.187 -11.4588 185.893 -13.4631 185.73 -15.48C185.638 -16.9837 185.272 -18.4579 184.65 -19.83L182.31 -25C176.59 -37.71 165.49 -63.05 164 -71.27L185.69 -75.54Z" fill="#FFB573"/>
<path d="M215.89 52.2899L208.52 54.5099C208.363 54.5555 208.226 54.654 208.133 54.7889C208.04 54.9238 207.997 55.0866 208.01 55.2499L208.53 62.6399C208.54 62.7963 208.581 62.9491 208.65 63.0896C208.72 63.2302 208.816 63.3556 208.934 63.4587C209.052 63.5619 209.19 63.6407 209.338 63.6906C209.487 63.7406 209.644 63.7607 209.8 63.7499C209.883 63.7587 209.967 63.7587 210.05 63.7499C213.1 62.7499 215.79 61.7999 219.61 60.6599C224.13 59.3199 223.14 60.1999 228.47 58.6599C231.69 57.7499 231.19 53.9399 229.78 54.1699C223.34 55.2399 220.98 53.8699 217.93 52.3699C217.283 52.0941 216.557 52.0656 215.89 52.2899Z" fill="#263238"/>
<path d="M320.76 46.8804L317.34 27.6704L307.85 31.3404L314.04 48.8704L320.76 46.8804Z" fill="#FFC3BD"/>
<path d="M314.31 48.0004L320.7 45.0004C320.834 44.9331 320.988 44.9152 321.134 44.9499C321.281 44.9847 321.41 45.0698 321.5 45.1904L325.65 50.5504C325.74 50.6622 325.806 50.7908 325.846 50.9286C325.886 51.0664 325.897 51.2107 325.881 51.3532C325.864 51.4956 325.819 51.6332 325.748 51.7581C325.678 51.883 325.583 51.9925 325.47 52.0804C325.409 52.1297 325.342 52.1702 325.27 52.2004C322.6 53.4104 320.17 54.3804 316.86 55.9404C312.96 57.7804 314.17 57.7804 309.61 60.0104C306.87 61.3504 304.88 58.4404 305.98 57.7404C310.98 54.5304 311.8 52.1704 312.98 49.2704C313.254 48.6992 313.727 48.2476 314.31 48.0004Z" fill="#263238"/>
<path d="M267.2 -112.54C267.2 -112.54 277.67 -45.2295 290.2 -14.3595C302.73 16.5105 309.2 35.9404 309.2 35.9404L318.63 32.8004C318.63 32.8004 313.84 -6.11956 305.97 -26.4996C305.61 -27.4196 305.25 -28.2996 304.88 -29.1496C302.669 -34.1669 301.489 -39.5773 301.41 -45.0596V-45.2296C301.3 -54.9496 301 -69.4396 300.19 -77.4496C300.559 -89.6801 297.674 -101.789 291.83 -112.54H267.2Z" fill="#263238"/>
<path opacity="0.7" d="M267.2 -112.54C267.2 -112.54 277.67 -45.2295 290.2 -14.3595C302.73 16.5105 309.2 35.9404 309.2 35.9404L318.63 32.8004C318.63 32.8004 313.84 -6.11956 305.97 -26.4996C305.61 -27.4196 305.25 -28.2996 304.88 -29.1496C302.669 -34.1669 301.489 -39.5773 301.41 -45.0596V-45.2296C301.3 -54.9496 301 -69.4396 300.19 -77.4496C300.559 -89.6801 297.674 -101.789 291.83 -112.54H267.2Z" fill="white"/>
<path d="M307.3 33.6504L309.19 37.6604L319.82 34.3604L319.25 29.9404L307.3 33.6504Z" fill="#263238"/>
<path opacity="0.6" d="M307.3 33.6504L309.19 37.6604L319.82 34.3604L319.25 29.9404L307.3 33.6504Z" fill="white"/>
<path d="M252.25 32.6203V55.5203H258.61L262.42 32.3203L252.25 32.6203Z" fill="#FFC3BD"/>
<path d="M252.29 53.2603L259.29 53.4603C259.439 53.4642 259.583 53.5188 259.698 53.615C259.812 53.7113 259.891 53.8437 259.92 53.9903L261.22 60.6503C261.249 60.7902 261.25 60.9346 261.223 61.0749C261.196 61.2153 261.141 61.3488 261.062 61.4679C260.983 61.5869 260.881 61.6891 260.762 61.7685C260.644 61.8479 260.51 61.9029 260.37 61.9303C260.294 61.9407 260.216 61.9407 260.14 61.9303C257.21 61.8003 254.6 61.5703 250.95 61.4903C246.64 61.3803 247.72 61.9203 242.65 61.8703C239.59 61.8703 239.12 58.3403 240.42 58.2103C246.37 57.6103 248.12 55.8403 250.42 53.7803C250.953 53.3731 251.623 53.1868 252.29 53.2603Z" fill="#263238"/>
<path d="M257.21 -111.9C257.21 -111.9 249.71 -48.4198 249.38 -34.4898C249.05 -20.5598 251.38 41.2102 251.38 41.2102L262.05 42.2102C262.05 42.2102 269.12 9.04018 269.65 -15.7898C269.69 -17.8432 269.69 -19.8432 269.65 -21.7898C269.415 -29.6332 270.427 -37.4642 272.65 -44.9898L273.55 -47.9898L281.71 -75.3698C281.71 -75.3698 295.02 -81.3198 289.71 -112.32L257.21 -111.9Z" fill="#263238"/>
<path opacity="0.7" d="M257.21 -111.9C257.21 -111.9 249.71 -48.4198 249.38 -34.4898C249.05 -20.5598 251.38 41.2102 251.38 41.2102L262.05 42.2102C262.05 42.2102 269.12 9.04018 269.65 -15.7898C269.69 -17.8432 269.69 -19.8432 269.65 -21.7898C269.415 -29.6332 270.427 -37.4642 272.65 -44.9898L273.55 -47.9898L281.71 -75.3698C281.71 -75.3698 295.02 -81.3198 289.71 -112.32L257.21 -111.9Z" fill="white"/>
<path d="M250.74 39.02L251.14 43.44L261.95 43.97L263.24 39.63L250.74 39.02Z" fill="#263238"/>
<path opacity="0.6" d="M250.74 39.02L251.14 43.44L261.95 43.97L263.24 39.63L250.74 39.02Z" fill="white"/>
<path d="M92.5999 45.3402L95.2999 54.9202L102.91 53.7802L101.19 43.4702L92.5999 45.3402Z" fill="#FFC3BD"/>
<path d="M95.43 53.0002L103.04 51.8602C103.201 51.8328 103.366 51.8616 103.508 51.9417C103.65 52.0219 103.76 52.1484 103.82 52.3002L106.5 59.2102C106.56 59.3551 106.59 59.5106 106.59 59.6674C106.589 59.8243 106.557 59.9794 106.495 60.1237C106.434 60.2681 106.344 60.3987 106.232 60.508C106.119 60.6173 105.986 60.703 105.84 60.7602L105.59 60.8302C102.41 61.2602 99.59 61.5202 95.59 62.1202C90.94 62.8402 92.2 63.2102 86.74 64.1202C83.45 64.6702 82.27 61.0102 83.64 60.6102C89.92 58.8302 91.47 56.6102 93.64 53.9202C94.106 53.4075 94.7418 53.0807 95.43 53.0002Z" fill="#263238"/>
<path d="M57.5 -101.48L71.7599 -24.6597L93.5399 51.0003L102.69 48.8103C102.69 48.8103 99.59 5.8103 92.92 -17.3797C91.46 -22.4597 87.92 -34.6897 87.92 -42.1597C87.92 -54.6197 88.75 -72.7797 88.97 -80.8297C89.14 -87.4997 89.77 -97.4497 84.97 -107.18L57.46 -104.3L57.5 -101.48Z" fill="#263238"/>
<path opacity="0.5" d="M57.5 -101.48L71.7599 -24.6597L93.5399 51.0003L102.69 48.8103C102.69 48.8103 99.59 5.8103 92.92 -17.3797C91.46 -22.4597 87.92 -34.6897 87.92 -42.1597C87.92 -54.6197 88.75 -72.7797 88.97 -80.8297C89.14 -87.4997 89.77 -97.4497 84.97 -107.18L57.46 -104.3L57.5 -101.48Z" fill="white"/>
<path d="M30.2999 35.9004L28.6499 54.4404L35.9199 56.3404L40.9499 38.0904L30.2999 35.9004Z" fill="#FFC3BD"/>
<path d="M28.8899 52.7702L36.2899 54.8902C36.4454 54.9368 36.5809 55.0338 36.6751 55.166C36.7693 55.2982 36.8167 55.4581 36.8099 55.6202L36.3799 63.0202C36.3722 63.1766 36.3338 63.3298 36.2667 63.4713C36.1997 63.6128 36.1055 63.7396 35.9893 63.8446C35.8732 63.9496 35.7375 64.0306 35.5901 64.083C35.4426 64.1355 35.2862 64.1583 35.1299 64.1502C35.0472 64.1654 34.9625 64.1654 34.8799 64.1502C31.8099 63.2202 29.1099 62.2802 25.2699 61.1502C20.7399 59.8602 21.7299 60.7302 16.3799 59.2902C13.1599 58.4202 13.6099 54.6102 15.0199 54.8202C21.4799 55.8202 23.8099 54.4102 26.8499 52.8202C27.5008 52.5542 28.2267 52.5364 28.8899 52.7702Z" fill="#263238"/>
<path d="M70.6999 -104.49C70.6999 -104.49 75.3199 -90.6796 67.2099 -70.5596C67.2099 -70.5596 57.6199 -45.3096 54.9699 -36.9096C54.1599 -34.3396 53.0599 -25.4096 52.3799 -17.0196C51.5799 -7.11962 49.6099 12.6904 37.7699 52.1804L28.4099 50.1804L40.9999 -108.37L70.6999 -104.49Z" fill="#263238"/>
<path opacity="0.5" d="M70.6999 -104.49C70.6999 -104.49 75.3199 -90.6796 67.2099 -70.5596C67.2099 -70.5596 57.6199 -45.3096 54.9699 -36.9096C54.1599 -34.3396 53.0599 -25.4096 52.3799 -17.0196C51.5799 -7.11962 49.6099 12.6904 37.7699 52.1804L28.4099 50.1804L40.9999 -108.37L70.6999 -104.49Z" fill="white"/>
<path d="M106.62 -76.3999C106.62 -76.3999 104.74 -30.9499 104.91 -6.0799C105.08 18.7901 106.62 56.4201 106.62 56.4201H113C113 56.4201 126.48 -9.1199 121 -26.5799C121 -26.5799 128 -52.9299 131.79 -72.1799L106.62 -76.3999Z" fill="#FFC3BD"/>
<path d="M121.37 -73.9999C121.37 -73.9999 134.79 -30.5399 143.28 -7.15991C151.77 16.2201 165.81 51.1601 165.81 51.1601L171.81 49.0301C171.81 49.0301 162.59 -17.2299 151.6 -31.8199C151.6 -31.8199 149.36 -58.9899 146.51 -78.3999L121.37 -73.9999Z" fill="#FFC3BD"/>
<path d="M106.44 55.1098L113.69 55.1998C113.844 55.2005 113.993 55.2533 114.113 55.3496C114.232 55.4458 114.316 55.5799 114.35 55.7298L115.8 62.5698C115.863 62.8615 115.807 63.166 115.646 63.417C115.485 63.668 115.231 63.8452 114.94 63.9098H114.71C111.71 63.8298 109 63.6398 105.24 63.6098C100.79 63.6098 101.92 64.1098 96.69 64.1398C93.55 64.1398 93.01 60.5698 94.34 60.3998C100.45 59.6898 102.23 57.8498 104.61 55.6798C105.132 55.2773 105.782 55.0751 106.44 55.1098Z" fill="#263238"/>
<path d="M165.27 50.3198L172.27 48.6098C172.419 48.5707 172.577 48.5842 172.717 48.648C172.857 48.7117 172.971 48.8218 173.04 48.9598L176.14 55.2298C176.207 55.3609 176.247 55.504 176.258 55.6507C176.269 55.7974 176.25 55.9449 176.204 56.0844C176.157 56.224 176.084 56.353 175.987 56.4637C175.89 56.5745 175.772 56.665 175.64 56.7298C175.571 56.77 175.497 56.8003 175.42 56.8198C172.47 57.4898 169.83 57.9698 166.17 58.8698C161.86 59.9398 163.08 60.1798 158.03 61.4998C155.03 62.2998 153.57 58.9598 154.82 58.4998C160.57 56.2998 161.82 54.0698 163.6 51.3798C164.005 50.8309 164.601 50.4529 165.27 50.3198Z" fill="#263238"/>
</g>
</g>
<defs>
<clipPath id="clip0_4753_8117">
<rect width="342" height="68" rx="8" fill="white"/>
</clipPath>
</defs>
</svg>
