<svg width="30" height="30" viewBox="0 0 30 30" fill="none" xmlns="http://www.w3.org/2000/svg">
<g clip-path="url(#clip0_328_3252)">
<path fill-rule="evenodd" clip-rule="evenodd" d="M1.68216 0.0514526C1.89321 0.0514526 2.10219 0.0930226 2.29718 0.173789C2.49217 0.254556 2.66934 0.372937 2.81858 0.522174C2.96781 0.671411 3.08619 0.848581 3.16696 1.04357C3.24773 1.23856 3.2893 1.44754 3.2893 1.6586V7.01574C3.28935 7.72532 3.49074 8.42033 3.87005 9.02003C4.24936 9.61972 4.79104 10.0995 5.43216 10.4036V1.6586C5.43216 1.23235 5.60148 0.823572 5.90288 0.522174C6.20427 0.220776 6.61306 0.0514526 7.0393 0.0514526C7.46554 0.0514526 7.87432 0.220776 8.17572 0.522174C8.47712 0.823572 8.64644 1.23235 8.64644 1.6586V10.4036C9.28756 10.0995 9.82923 9.61972 10.2085 9.02003C10.5879 8.42033 10.7892 7.72532 10.7893 7.01574V1.6586C10.7893 1.23235 10.9586 0.823572 11.26 0.522174C11.5614 0.220776 11.9702 0.0514526 12.3964 0.0514526C12.8227 0.0514526 13.2315 0.220776 13.5329 0.522174C13.8343 0.823572 14.0036 1.23235 14.0036 1.6586V7.01574C14.0034 8.48799 13.5367 9.92232 12.6705 11.1127C11.8042 12.3032 10.583 13.1885 9.18215 13.6415V27.8572C9.18215 28.4255 8.95639 28.9705 8.55453 29.3724C8.15266 29.7743 7.60762 30 7.0393 30C6.47098 30 5.92593 29.7743 5.52407 29.3724C5.12221 28.9705 4.89644 28.4255 4.89644 27.8572V13.6436C3.49527 13.1905 2.27379 12.3049 1.4075 11.114C0.541213 9.92316 0.0747084 8.48835 0.0750124 7.01574V1.6586C0.0750124 1.23235 0.244336 0.823572 0.545734 0.522174C0.847131 0.220776 1.25591 0.0514526 1.68216 0.0514526ZM23.2179 0.0514526C19.4207 0.0514526 16.9157 3.75217 16.9157 7.52788C16.9157 10.5365 18.5057 13.4979 21.0729 14.5779V27.8572C21.0729 28.4255 21.2986 28.9705 21.7005 29.3724C22.1024 29.7743 22.6474 30 23.2157 30C23.784 30 24.3291 29.7743 24.731 29.3724C25.1328 28.9705 25.3586 28.4255 25.3586 27.8572V14.5757C27.93 13.4979 29.52 10.5365 29.52 7.52574C29.52 3.75217 27.0129 0.0514526 23.2179 0.0514526Z" fill="#684DF0"/>
</g>
<defs>
<clipPath id="clip0_328_3252">
<rect width="30" height="30" fill="white"/>
</clipPath>
</defs>
</svg>
