<svg width="20" height="21" viewBox="0 0 20 21" fill="none" xmlns="http://www.w3.org/2000/svg">
<path d="M11.8625 16.3334C12.5833 16.3334 12.9642 17.1867 12.4833 17.7234C12.171 18.0729 11.7883 18.3525 11.3603 18.5438C10.9323 18.7351 10.4688 18.8337 10 18.8334C9.53124 18.8337 9.06768 18.7351 8.63971 18.5438C8.21174 18.3525 7.82904 18.0729 7.51668 17.7234C7.05668 17.21 7.38501 16.4075 8.04501 16.3392L8.13668 16.3342L11.8625 16.3334Z" fill="#1D0D33"/>
<path d="M10 2.16669C11.1317 2.16669 12.0883 2.91919 12.3958 3.95085L12.4342 4.09335L12.4408 4.12919C13.3595 4.64744 14.1423 5.37594 14.7252 6.25502C15.308 7.1341 15.6744 8.13875 15.7942 9.18669L15.8175 9.42585L15.8333 9.66669V12.1092L15.8508 12.2225C15.9649 12.8365 16.3047 13.3856 16.8033 13.7617L16.9425 13.8592L17.0775 13.9417C17.7942 14.3475 17.5442 15.4134 16.7633 15.495L16.6667 15.5H3.33333C2.47666 15.5 2.1775 14.3634 2.9225 13.9417C3.24002 13.762 3.51437 13.515 3.72628 13.218C3.93819 12.921 4.08253 12.5812 4.14916 12.2225L4.16666 12.1034L4.1675 9.62835C4.21831 8.53992 4.53513 7.48053 5.09023 6.54291C5.64534 5.60529 6.4218 4.81803 7.35166 4.25002L7.55833 4.12835L7.56666 4.09252C7.68454 3.59421 7.95245 3.14405 8.33423 2.8028C8.71602 2.46155 9.1933 2.24563 9.70166 2.18419L9.85333 2.17002L10 2.16669Z" fill="#1D0D33"/>
</svg>
