<svg width="18" height="18" viewBox="0 0 18 18" fill="none" xmlns="http://www.w3.org/2000/svg">
<path d="M7.93875 7.94025C7.65749 8.22162 7.49952 8.60318 7.49959 9.00102C7.49966 9.39885 7.65776 9.78037 7.93913 10.0616C8.22049 10.3429 8.60206 10.5009 8.99989 10.5008C9.39773 10.5007 9.77924 10.3426 10.0605 10.0613M12.5107 12.5048C11.4587 13.163 10.241 13.5082 9 13.5C6.3 13.5 4.05 12 2.25 9C3.204 7.41 4.284 6.2415 5.49 5.4945M7.635 4.635C8.08428 4.54405 8.54161 4.49882 9 4.5C11.7 4.5 13.95 6 15.75 9C15.2505 9.8325 14.7157 10.5502 14.1465 11.1525M2.25 2.25L15.75 15.75" stroke="#101828" stroke-width="2" stroke-linecap="round" stroke-linejoin="round"/>
</svg>
