<svg width="32" height="32" viewBox="0 0 32 32" fill="none" xmlns="http://www.w3.org/2000/svg">
<path d="M16 2.664C23.3653 2.664 29.336 8.63467 29.336 16C29.336 23.364 23.3653 29.3333 16 29.3333C8.63467 29.3347 2.664 23.364 2.664 16C2.664 8.63467 8.63467 2.664 16 2.664ZM11.2827 19.7107C11.2014 19.6074 11.1006 19.5212 10.9861 19.457C10.8715 19.3927 10.7454 19.3516 10.615 19.3361C10.3516 19.3047 10.0865 19.3793 9.878 19.5433C9.77478 19.6246 9.68858 19.7254 9.62431 19.8399C9.56003 19.9545 9.51896 20.0806 9.50342 20.211C9.47204 20.4744 9.54659 20.7395 9.71067 20.948C10.4589 21.9005 11.414 22.6703 12.5036 23.1993C13.5932 23.7283 14.7888 24.0025 16 24.0013C17.2095 24.0026 18.4034 23.7291 19.4917 23.2015C20.5801 22.674 21.5344 21.9062 22.2827 20.956C22.3641 20.853 22.4244 20.7349 22.4602 20.6085C22.496 20.4822 22.5065 20.35 22.4913 20.2196C22.476 20.0891 22.4351 19.963 22.3711 19.8483C22.307 19.7337 22.221 19.6328 22.118 19.5513C22.015 19.4699 21.8969 19.4096 21.7705 19.3738C21.6442 19.338 21.512 19.3275 21.3816 19.3428C21.2511 19.358 21.125 19.3989 21.0103 19.4629C20.8957 19.527 20.7948 19.613 20.7133 19.716C20.1522 20.4292 19.4363 21.0055 18.6198 21.4014C17.8033 21.7973 16.9075 22.0024 16 22.0013C14.136 22.0013 12.4133 21.148 11.2827 19.7107ZM12 11.6667C11.7773 11.6604 11.5555 11.6988 11.3479 11.7797C11.1402 11.8606 10.9509 11.9823 10.7911 12.1376C10.6314 12.2929 10.5043 12.4787 10.4176 12.684C10.3309 12.8893 10.2862 13.1098 10.2862 13.3327C10.2862 13.5555 10.3309 13.7761 10.4176 13.9813C10.5043 14.1866 10.6314 14.3724 10.7911 14.5277C10.9509 14.6831 11.1402 14.8048 11.3479 14.8857C11.5555 14.9665 11.7773 15.005 12 14.9987C12.4337 14.9864 12.8455 14.8055 13.1479 14.4944C13.4503 14.1833 13.6195 13.7665 13.6195 13.3327C13.6195 12.8988 13.4503 12.482 13.1479 12.1709C12.8455 11.8598 12.4337 11.6789 12 11.6667ZM20 11.6667C19.7773 11.6604 19.5555 11.6988 19.3479 11.7797C19.1402 11.8606 18.9509 11.9823 18.7911 12.1376C18.6314 12.2929 18.5043 12.4787 18.4176 12.684C18.3309 12.8893 18.2862 13.1098 18.2862 13.3327C18.2862 13.5555 18.3309 13.7761 18.4176 13.9813C18.5043 14.1866 18.6314 14.3724 18.7911 14.5277C18.9509 14.6831 19.1402 14.8048 19.3479 14.8857C19.5555 14.9665 19.7773 15.005 20 14.9987C20.4337 14.9864 20.8455 14.8055 21.1479 14.4944C21.4503 14.1833 21.6195 13.7665 21.6195 13.3327C21.6195 12.8988 21.4503 12.482 21.1479 12.1709C20.8455 11.8598 20.4337 11.6789 20 11.6667Z" fill="#684DF0"/>
</svg>
