<svg width="24" height="24" viewBox="0 0 24 24" fill="none" xmlns="http://www.w3.org/2000/svg">
<rect width="24" height="24" rx="12" fill="white"/>
<path d="M7.33333 8.6665H8C8.35362 8.6665 8.69276 8.52603 8.94281 8.27598C9.19286 8.02593 9.33333 7.68679 9.33333 7.33317C9.33333 7.15636 9.40357 6.98679 9.5286 6.86177C9.65362 6.73674 9.82319 6.6665 10 6.6665H14C14.1768 6.6665 14.3464 6.73674 14.4714 6.86177C14.5964 6.98679 14.6667 7.15636 14.6667 7.33317C14.6667 7.68679 14.8071 8.02593 15.0572 8.27598C15.3072 8.52603 15.6464 8.6665 16 8.6665H16.6667C17.0203 8.6665 17.3594 8.80698 17.6095 9.05703C17.8595 9.30708 18 9.64622 18 9.99984V15.9998C18 16.3535 17.8595 16.6926 17.6095 16.9426C17.3594 17.1927 17.0203 17.3332 16.6667 17.3332H7.33333C6.97971 17.3332 6.64057 17.1927 6.39052 16.9426C6.14048 16.6926 6 16.3535 6 15.9998V9.99984C6 9.64622 6.14048 9.30708 6.39052 9.05703C6.64057 8.80698 6.97971 8.6665 7.33333 8.6665Z" stroke="#6532AD" stroke-width="2" stroke-linecap="round" stroke-linejoin="round"/>
<path d="M10 12.6665C10 13.1969 10.2107 13.7056 10.5858 14.0807C10.9609 14.4558 11.4696 14.6665 12 14.6665C12.5304 14.6665 13.0391 14.4558 13.4142 14.0807C13.7893 13.7056 14 13.1969 14 12.6665C14 12.1361 13.7893 11.6274 13.4142 11.2523C13.0391 10.8772 12.5304 10.6665 12 10.6665C11.4696 10.6665 10.9609 10.8772 10.5858 11.2523C10.2107 11.6274 10 12.1361 10 12.6665Z" stroke="#6532AD" stroke-width="2" stroke-linecap="round" stroke-linejoin="round"/>
</svg>
