<svg width="60" height="60" viewBox="0 0 60 60" fill="none" xmlns="http://www.w3.org/2000/svg">
<rect width="60" height="60" rx="30" fill="white"/>
<path d="M42.68 23.6666L24.6667 41.7066L17.3334 42.6666L18.2934 35.3332L36.3334 17.3199C36.7474 16.8982 37.2412 16.5632 37.786 16.3343C38.3308 16.1053 38.9158 15.9872 39.5067 15.9866C40.0979 15.9866 40.6833 16.1032 41.2293 16.3299C41.7753 16.5565 42.2713 16.8887 42.6887 17.3073C43.1061 17.726 43.4368 18.2229 43.6618 18.7696C43.8869 19.3163 44.0018 19.902 44 20.4932C44.0012 21.0833 43.8851 21.6676 43.6585 22.2124C43.4319 22.7571 43.0993 23.2514 42.68 23.6666Z" stroke="black" stroke-width="2" stroke-miterlimit="10"/>
<path d="M33.84 19.8132L40.1866 26.1599" stroke="black" stroke-width="1.5" stroke-miterlimit="10"/>
<path d="M24.6667 41.6933L17.3334 42.6666L18.2934 35.3333C19.8099 35.7356 21.1911 36.5367 22.2934 37.6533C23.4356 38.7603 24.2559 40.1566 24.6667 41.6933Z" stroke="black" stroke-width="1.5" stroke-miterlimit="10"/>
<path d="M37.0133 22.9866L22.3467 37.6532" stroke="black" stroke-width="2" stroke-miterlimit="10"/>
</svg>
